<svg id="Слой_1" data-name="Слой 1" xmlns="http://www.w3.org/2000/svg" xmlns:xlink="http://www.w3.org/1999/xlink" viewBox="0 0 181.48 332.8"><defs><style>.cls-1{fill:none;}.cls-2{fill:#a5a5a5;}.cls-3{clip-path:url(#clip-path);}</style><clipPath id="clip-path" transform="translate(-214.22 -229.6)"><rect class="cls-1" x="214" y="229" width="182" height="334"/></clipPath></defs><title>hand</title><path class="cls-2" d="M375.18,562.4h-142a2.56,2.56,0,0,1-2.56-2.56V495.11a2.56,2.56,0,0,1,2.56-2.56h142a2.57,2.57,0,0,1,2.57,2.56v64.73a2.57,2.57,0,0,1-2.57,2.56ZM235.7,557.28H372.62V497.67H235.7Zm0,0" transform="translate(-214.22 -229.6)"/><g class="cls-3"><path class="cls-2" d="M352.47,538.85a11.37,11.37,0,1,1,11.37-11.37,11.39,11.39,0,0,1-11.37,11.37Zm0-17.62a6.25,6.25,0,1,0,6.24,6.25,6.23,6.23,0,0,0-6.24-6.25Zm0,0" transform="translate(-214.22 -229.6)"/><path class="cls-2" d="M361,497.66a2.36,2.36,0,0,1-.65-.08,2.55,2.55,0,0,1-1.83-3.12,47.94,47.94,0,0,1,7.08-15.36l2.46-3.59a166.78,166.78,0,0,0,19.06-31,60.58,60.58,0,0,0,2.29-8.37,67.07,67.07,0,0,0-20.26-61.39l-34.58-34.3a2.56,2.56,0,0,1,3.61-3.64l34.56,34.28a72.21,72.21,0,0,1,21.7,66.05,64.42,64.42,0,0,1-2.58,9.28,166.66,166.66,0,0,1-19.68,32.17L369.85,482a42.83,42.83,0,0,0-6.34,13.75,2.54,2.54,0,0,1-2.48,1.91Zm0,0" transform="translate(-214.22 -229.6)"/></g><path class="cls-2" d="M248.21,497.66a2.56,2.56,0,0,1-2.42-1.71c-14-39.93,8.87-73,13.77-79.38l-20.67-71a22.22,22.22,0,0,1,7.5-23,23.77,23.77,0,0,1,8.07-4,21.72,21.72,0,0,1,16.73,2.21,22,22,0,0,1,10.28,13.38L297.72,388a2.57,2.57,0,0,1-4.91,1.48l-16.26-53.9a17,17,0,0,0-7.93-10.36,16.62,16.62,0,0,0-12.8-1.71,19,19,0,0,0-6.27,3.11,17,17,0,0,0-5.73,17.59l21,72.25a2.57,2.57,0,0,1-.49,2.34c-1.15,1.39-28.06,34.59-13.73,75.51a2.57,2.57,0,0,1-1.57,3.26,2.39,2.39,0,0,1-.84.14Zm0,0" transform="translate(-214.22 -229.6)"/><path class="cls-2" d="M242.84,396.85a17.24,17.24,0,0,1-8.34-2.15,15.83,15.83,0,0,1-8.14-11.39c0-.1,0-.21,0-.31a18.58,18.58,0,0,1,2.59-12.22l12.41-19.89a2.57,2.57,0,0,1,4.36,2.71l-12.42,19.87a13.23,13.23,0,0,0-1.84,9l0,.26a10.77,10.77,0,0,0,5.52,7.54,12,12,0,0,0,10.41.59,26,26,0,0,0,5.47-3.18,2.57,2.57,0,0,1,3.1,4.09,31.39,31.39,0,0,1-6.57,3.8,16.48,16.48,0,0,1-6.54,1.32Zm0,0" transform="translate(-214.22 -229.6)"/><path class="cls-2" d="M325.55,550.29H286.36a2.56,2.56,0,0,1,0-5.12h39.19a2.56,2.56,0,1,1,0,5.12Zm0,0" transform="translate(-214.22 -229.6)"/><path class="cls-2" d="M273.52,550.29H245a2.56,2.56,0,0,1,0-5.12h28.52a2.56,2.56,0,1,1,0,5.12Zm0,0" transform="translate(-214.22 -229.6)"/><path class="cls-2" d="M379.24,436.4a2.63,2.63,0,0,1-.49,0,2.56,2.56,0,0,1-2-3,55,55,0,0,0-15.4-48.06A2.56,2.56,0,1,1,365,381.7a60.17,60.17,0,0,1,16.77,52.62,2.56,2.56,0,0,1-2.51,2.08Zm0,0" transform="translate(-214.22 -229.6)"/><path class="cls-2" d="M360,471.42a2.56,2.56,0,0,1-2-4.16,131,131,0,0,0,9.38-13.53,2.56,2.56,0,1,1,4.37,2.66A134.89,134.89,0,0,1,362,470.45a2.57,2.57,0,0,1-2,1Zm0,0" transform="translate(-214.22 -229.6)"/><path class="cls-2" d="M257.23,466.28H257a2.56,2.56,0,0,1-2.3-2.8,80.88,80.88,0,0,1,14.42-37.94,2.56,2.56,0,0,1,4.17,3A75.56,75.56,0,0,0,259.77,464a2.58,2.58,0,0,1-2.54,2.32Zm0,0" transform="translate(-214.22 -229.6)"/><g class="cls-3"><path class="cls-2" d="M288.1,367.52a2.56,2.56,0,0,1-.18-5.12,64,64,0,1,0-43-12.62,2.56,2.56,0,1,1-3.07,4.1,69,69,0,1,1,46.42,13.64Zm0,0" transform="translate(-214.22 -229.6)"/></g><path class="cls-2" d="M284.09,354.32a2.56,2.56,0,0,1,0-5.12,50.55,50.55,0,1,0-39.92-18.48,2.56,2.56,0,0,1-4,3.25,55.73,55.73,0,1,1,43.95,20.34Zm0,0" transform="translate(-214.22 -229.6)"/></svg>