<?xml version="1.0"?>
<svg xmlns="http://www.w3.org/2000/svg" xmlns:xlink="http://www.w3.org/1999/xlink" xmlns:svgjs="http://svgjs.com/svgjs" version="1.1" width="512" height="512" x="0" y="0" viewBox="0 0 150 150" style="enable-background:new 0 0 512 512" xml:space="preserve" class=""><g><path xmlns="http://www.w3.org/2000/svg" d="m123.771 95.528h-25.971a1 1 0 0 1 0-2h25.971a1 1 0 0 1 0 2z" fill="#aeaeae" data-original="#000000" style="" class=""/><path xmlns="http://www.w3.org/2000/svg" d="m122.246 110.344h-18.866a1 1 0 0 1 0-2h18.866a1 1 0 0 1 0 2z" fill="#aeaeae" data-original="#000000" style="" class=""/><path xmlns="http://www.w3.org/2000/svg" d="m115.217 125.16h-13.593a1 1 0 0 1 0-2h13.593a1 1 0 1 1 0 2z" fill="#aeaeae" data-original="#000000" style="" class=""/><path xmlns="http://www.w3.org/2000/svg" d="m114.388 139.977h-53.346a1.012 1.012 0 0 1 -.2-.021l-18.119-3.795h-4.36a1 1 0 0 1 0-2h4.464a1.088 1.088 0 0 1 .2.021l18.119 3.8h53.242a6.619 6.619 0 0 0 6.555-5.12 6.469 6.469 0 0 0 -1.339-5.373 6.4 6.4 0 0 0 -4.948-2.331 1 1 0 0 1 0-2h4.884a6.577 6.577 0 0 0 6.574-5.126 6.472 6.472 0 0 0 -1.357-5.355 6.382 6.382 0 0 0 -4.931-2.325 1 1 0 0 1 0-2h3.664a6.579 6.579 0 0 0 6.573-5.143 6.476 6.476 0 0 0 -1.355-5.356 6.388 6.388 0 0 0 -4.932-2.325 1 1 0 1 1 0-2h6.45a6.41 6.41 0 0 0 6.4-6.4v-.439a6.429 6.429 0 0 0 -6.421-6.422l-54.236.5h-.009a1 1 0 0 1 -.561-1.827c6.224-4.226 8.35-6.45 12.841-11.73 4.96-5.849 7.26-14.584 1.22-20.941a3.3 3.3 0 0 0 -2.4-1.022 3.835 3.835 0 0 0 -2.7 1.129l-13.75 14.824a55.011 55.011 0 0 1 -32.124 16.227 1 1 0 1 1 -.256-1.984 52.985 52.985 0 0 0 30.931-15.618l13.748-14.825a5.911 5.911 0 0 1 4.168-1.75 5.289 5.289 0 0 1 3.835 1.646c6.889 7.256 4.388 17.081-1.146 23.6-3.843 4.518-6.091 6.946-10.6 10.233l51.028-.467a8.433 8.433 0 0 1 8.43 8.422v.439a8.412 8.412 0 0 1 -8.4 8.4h-1.013a8.376 8.376 0 0 1 -4.12 14.683 8.385 8.385 0 0 1 -5.007 14.931 8.414 8.414 0 0 1 -5.7 14.84z" fill="#aeaeae" data-original="#000000" style="" class=""/><path xmlns="http://www.w3.org/2000/svg" d="m35.056 139.831h-19.373a4.316 4.316 0 0 1 -4.311-4.311v-59.933a4.316 4.316 0 0 1 4.311-4.311h19.373a4.316 4.316 0 0 1 4.311 4.311v59.933a4.316 4.316 0 0 1 -4.311 4.311zm-19.373-66.555a2.313 2.313 0 0 0 -2.311 2.311v59.933a2.314 2.314 0 0 0 2.311 2.311h19.373a2.313 2.313 0 0 0 2.311-2.311v-59.933a2.313 2.313 0 0 0 -2.311-2.311z" fill="#aeaeae" data-original="#000000" style="" class=""/><path xmlns="http://www.w3.org/2000/svg" d="m25.37 134.985a5.134 5.134 0 1 1 5.133-5.133 5.139 5.139 0 0 1 -5.133 5.133zm0-8.267a3.134 3.134 0 1 0 3.133 3.134 3.138 3.138 0 0 0 -3.133-3.134z" fill="#aeaeae" data-original="#000000" style="" class=""/><path xmlns="http://www.w3.org/2000/svg" d="m83.283 134.214h-21.45a1.088 1.088 0 0 1 -.2-.021l-8.919-1.868a1 1 0 0 1 .411-1.958l8.817 1.847h21.341a1 1 0 1 1 0 2z" fill="#aeaeae" data-original="#000000" style="" class=""/><path xmlns="http://www.w3.org/2000/svg" d="m16.933 118.943a1 1 0 0 1 -1-1v-5.393a1 1 0 0 1 2 0v5.393a1 1 0 0 1 -1 1z" fill="#aeaeae" data-original="#000000" style="" class=""/><path xmlns="http://www.w3.org/2000/svg" d="m16.933 108.264a1 1 0 0 1 -1-1v-23.724a1 1 0 0 1 2 0v23.724a1 1 0 0 1 -1 1z" fill="#aeaeae" data-original="#000000" style="" class=""/><path xmlns="http://www.w3.org/2000/svg" d="m64.034 40.884a.994.994 0 0 1 -.465-.115l-7.434-3.908-7.435 3.908a1 1 0 0 1 -1.451-1.054l1.42-8.277-6.013-5.861a1 1 0 0 1 .554-1.706l8.31-1.207 3.717-7.531a1.041 1.041 0 0 1 1.793 0l3.717 7.531 8.309 1.207a1 1 0 0 1 .555 1.706l-6.011 5.861 1.42 8.277a1 1 0 0 1 -.985 1.169zm-7.9-6.152a1 1 0 0 1 .465.114l6.106 3.21-1.166-6.8a1 1 0 0 1 .287-.885l4.938-4.814-6.824-.991a1 1 0 0 1 -.753-.548l-3.053-6.184-3.051 6.186a1 1 0 0 1 -.753.548l-6.825.991 4.939 4.814a1 1 0 0 1 .287.885l-1.166 6.8 6.105-3.21a1 1 0 0 1 .465-.116z" fill="#aeaeae" data-original="#000000" style="" class=""/><path xmlns="http://www.w3.org/2000/svg" d="m111.953 40.884a1 1 0 0 1 -.986-1.169l1.42-8.277-6.013-5.861a1 1 0 0 1 .554-1.706l8.31-1.207 3.717-7.531a1.041 1.041 0 0 1 1.793 0l3.716 7.531 8.31 1.207a1 1 0 0 1 .555 1.706l-6.014 5.861 1.419 8.277a1 1 0 0 1 -1.451 1.054l-7.432-3.908-7.434 3.908a.99.99 0 0 1 -.464.115zm7.9-6.152a1.012 1.012 0 0 1 .466.114l6.1 3.21-1.165-6.8a1 1 0 0 1 .287-.885l4.939-4.814-6.824-.991a1 1 0 0 1 -.753-.548l-3.053-6.184-3.05 6.186a1 1 0 0 1 -.753.548l-6.824.991 4.939 4.814a1 1 0 0 1 .287.885l-1.166 6.8 6.1-3.21a1 1 0 0 1 .468-.116z" fill="#aeaeae" data-original="#000000" style="" class=""/><path xmlns="http://www.w3.org/2000/svg" d="m95.891 36.285a1.008 1.008 0 0 1 -.465-.114l-7.433-3.908-7.432 3.908a1 1 0 0 1 -1.451-1.055l1.419-8.277-6.014-5.86a1 1 0 0 1 .555-1.706l8.31-1.208 3.716-7.53a1.041 1.041 0 0 1 1.793 0l3.717 7.53 8.31 1.208a1 1 0 0 1 .554 1.706l-6.013 5.86 1.419 8.277a1 1 0 0 1 -.985 1.169zm-18.528-15.324 4.937 4.813a1 1 0 0 1 .287.885l-1.165 6.8 6.1-3.209a1 1 0 0 1 .931 0l6.105 3.209-1.166-6.8a1 1 0 0 1 .287-.885l4.939-4.813-6.818-.992a1 1 0 0 1 -.753-.547l-3.052-6.185-3.052 6.185a1 1 0 0 1 -.753.547z" fill="#aeaeae" data-original="#000000" style="" class=""/></g></svg>
