<svg fill="#00a2fe" version="1.1" xmlns="http://www.w3.org/2000/svg" xmlns:xlink="http://www.w3.org/1999/xlink" x="0px" y="0px" viewBox="0 0 1000 1000" enable-background="new 0 0 1000 1000" xml:space="preserve">
<g><path d="M850,360c0-193.2-156.7-350-350-350c-193.2,0-350,156.7-350,350c0,70.6,20.9,136.3,56.9,191.3h-0.7l262.4,419.3l0,0C474.3,982,486.2,990,500,990c13.8,0,25.6-7.9,31.4-19.5l0,0l262.4-419.3h-0.7C829.1,496.2,850,430.6,850,360z M500,200.4c88.1,0,159.6,71.4,159.6,159.6c0,88.1-71.4,159.6-159.6,159.6c-88.1,0-159.6-71.4-159.6-159.6C340.4,271.8,411.9,200.4,500,200.4z"/></g>
</svg>