<?xml version="1.0"?>
<svg xmlns="http://www.w3.org/2000/svg" xmlns:xlink="http://www.w3.org/1999/xlink" xmlns:svgjs="http://svgjs.com/svgjs" version="1.1" width="512" height="512" x="0" y="0" viewBox="0 0 150 150" style="enable-background:new 0 0 512 512" xml:space="preserve" class=""><g><path xmlns="http://www.w3.org/2000/svg" d="M81.427,140H68.573a1,1,0,0,1-.984-.825l-2.562-14.37a50.2,50.2,0,0,1-18.2-7.535l-11.97,8.349a1,1,0,0,1-1.279-.113l-9.088-9.089a1,1,0,0,1-.113-1.279l8.348-11.97a50.219,50.219,0,0,1-7.535-18.2l-14.37-2.561A1,1,0,0,1,10,81.426V68.573a1,1,0,0,1,.824-.984l14.37-2.562a50.207,50.207,0,0,1,7.535-18.195L24.381,34.861a1,1,0,0,1,.113-1.279l9.088-9.088a1,1,0,0,1,1.279-.114l11.97,8.349a50.2,50.2,0,0,1,18.2-7.535l2.562-14.369A1,1,0,0,1,68.573,10H81.427a1,1,0,0,1,.984.825l2.562,14.369a50.213,50.213,0,0,1,18.2,7.535l11.97-8.349a1,1,0,0,1,1.279.114l9.088,9.088a1,1,0,0,1,.113,1.279l-8.348,11.971a50.207,50.207,0,0,1,7.535,18.2l14.37,2.562a1,1,0,0,1,.824.984V81.426a1,1,0,0,1-.824.985l-14.37,2.561a50.219,50.219,0,0,1-7.535,18.2l8.348,11.97a1,1,0,0,1-.113,1.279l-9.088,9.089a1,1,0,0,1-1.279.113l-11.97-8.349a50.206,50.206,0,0,1-18.2,7.535l-2.562,14.37A1,1,0,0,1,81.427,140Zm-12.016-2H80.589l2.535-14.223a1,1,0,0,1,.8-.808,48.24,48.24,0,0,0,18.683-7.737,1,1,0,0,1,1.139,0L115.6,123.5l7.9-7.9-8.264-11.847a1,1,0,0,1,0-1.139,48.255,48.255,0,0,0,7.738-18.684,1,1,0,0,1,.807-.8L138,80.589V69.411l-14.223-2.536a1,1,0,0,1-.807-.8,48.244,48.244,0,0,0-7.738-18.683,1,1,0,0,1,0-1.139L123.5,34.4l-7.9-7.9-11.847,8.263a1,1,0,0,1-1.139,0A48.252,48.252,0,0,0,83.927,27.03a1,1,0,0,1-.8-.808L80.589,12H69.411L66.876,26.222a1,1,0,0,1-.8.808A48.24,48.24,0,0,0,47.39,34.767a1,1,0,0,1-1.139,0L34.4,26.5l-7.9,7.9,8.264,11.847a1,1,0,0,1,0,1.139A48.244,48.244,0,0,0,27.03,66.073a1,1,0,0,1-.807.8L12,69.411V80.589l14.223,2.535a1,1,0,0,1,.807.8,48.255,48.255,0,0,0,7.738,18.684,1,1,0,0,1,0,1.139L26.5,115.6l7.9,7.9,11.847-8.264a1,1,0,0,1,1.139,0,48.24,48.24,0,0,0,18.683,7.737,1,1,0,0,1,.8.808ZM139,81.426h0Z" fill="#a5a5a5" data-original="#000000" style="" class=""/><path xmlns="http://www.w3.org/2000/svg" d="M75,111.956A36.957,36.957,0,1,1,111.956,75,37,37,0,0,1,75,111.956Zm0-71.913A34.957,34.957,0,1,0,109.956,75,35,35,0,0,0,75,40.043Z" fill="#a5a5a5" data-original="#000000" style="" class=""/><path xmlns="http://www.w3.org/2000/svg" d="M75,90.468c-15.437,0-27.683-14.216-28.2-14.821a1,1,0,0,1,0-1.294c.513-.6,12.759-14.821,28.2-14.821s27.683,14.216,28.2,14.821a1,1,0,0,1,0,1.294C102.683,76.252,90.437,90.468,75,90.468ZM48.914,75C51.5,77.769,62.312,88.468,75,88.468c12.7,0,23.5-10.7,26.086-13.468C98.5,72.231,87.688,61.532,75,61.532,62.3,61.532,51.5,72.229,48.914,75Z" fill="#a5a5a5" data-original="#000000" style="" class=""/><path xmlns="http://www.w3.org/2000/svg" d="M75,86.351A11.351,11.351,0,1,1,86.352,75,11.365,11.365,0,0,1,75,86.351Zm0-20.7A9.351,9.351,0,1,0,84.352,75,9.363,9.363,0,0,0,75,65.649Z" fill="#a5a5a5" data-original="#000000" style="" class=""/><path xmlns="http://www.w3.org/2000/svg" d="M68.335,76a1,1,0,0,1-1-1A7.674,7.674,0,0,1,75,67.334a1,1,0,0,1,0,2A5.672,5.672,0,0,0,69.335,75,1,1,0,0,1,68.335,76Z" fill="#a5a5a5" data-original="#000000" style="" class=""/><path xmlns="http://www.w3.org/2000/svg" d="M47.225,62.862a1,1,0,0,1-.9-1.429,31.789,31.789,0,0,1,2.449-4.265A1,1,0,0,1,50.423,58.3a29.732,29.732,0,0,0-2.294,4A1,1,0,0,1,47.225,62.862Z" fill="#a5a5a5" data-original="#000000" style="" class=""/><path xmlns="http://www.w3.org/2000/svg" d="M52.762,54.82a1,1,0,0,1-.724-1.69,31.609,31.609,0,0,1,16.487-9.184,1,1,0,0,1,.409,1.958A29.617,29.617,0,0,0,53.485,54.51,1,1,0,0,1,52.762,54.82Z" fill="#a5a5a5" data-original="#000000" style="" class=""/></g></svg>
